<?xml version="1.0" encoding="utf-8"?>
<svg xmlns="http://www.w3.org/2000/svg" height="256" width="256" viewBox="0 0 256 256">
  <g>
    <path id="path1" transform="rotate(0,128,128) translate(59.0001562833786,59) scale(4.3125,4.3125)  " fill="#B45634" d="M26.718063,20.266994C26.97395,20.266994 27.22996,20.364487 27.425469,20.559474 27.815487,20.950448 27.815487,21.583406 27.425469,21.973381L21.958231,27.440021C21.763223,27.635008 21.507212,27.733002 21.251201,27.733002 20.99519,27.733002 20.739179,27.635008 20.54417,27.440021 20.153153,27.049047 20.153153,26.417089 20.54417,26.026114L26.011408,20.559474C26.206416,20.364487,26.462178,20.266994,26.718063,20.266994z M23.984878,18C20.668945,18 17.970936,20.69101 17.970935,24 17.970936,27.30899 20.668945,30 23.984878,30 27.300932,30 29.999918,27.30899 29.999918,24 29.999918,20.69101 27.300932,18 23.984878,18z M10.602013,15C5.8590069,15 2.0000019,18.829 2.0000019,23.536 2.0000019,24.895 3.116004,26 4.4890051,26L16.224545,26 16.223661,25.9969C16.058695,25.358372 15.970927,24.68922 15.970927,24 15.970927,20.829586 17.828103,18.08383 20.513557,16.790127L20.610048,16.746509 20.332882,16.543528C18.894581,15.541328,17.180458,15,15.397018,15L12.998989,15z M12.998989,2C9.9409966,2 7.4530029,4.467 7.4530029,7.5 7.4530029,9.947 9.1079988,12.123 11.477993,12.791 12.46099,13.068 13.534987,13.069 14.520984,12.791 16.890978,12.122 18.544973,9.9460001 18.544973,7.5 18.544973,4.467 16.05698,2 12.998989,2z M12.998989,0C17.159977,0 20.544968,3.3640003 20.544968,7.5 20.544968,9.6899061 19.574254,11.720467 17.994865,13.115179L17.807255,13.274319 17.878825,13.290484C19.649886,13.712344,21.289962,14.584438,22.645027,15.846L22.882482,16.076041 22.965591,16.064397C23.299444,16.021905 23.639646,16 23.984878,16 28.403964,16 31.999927,19.588989 31.999927,24 31.999927,28.411011 28.403964,32 23.984878,32 21.084932,32 18.539845,30.454351 17.132766,28.145063L17.049115,28 4.4890051,28C2.0130024,28 0,25.997 0,23.536 0,18.633812 3.3851557,14.50334 7.9551821,13.33225L8.1908908,13.27496 8.0041213,13.116582C6.4241533,11.721779 5.4530087,9.6905622 5.4530087,7.5 5.4530087,3.3640003 8.8379993,0 12.998989,0z" />
  </g>
</svg>

